<svg width="51" height="43" viewBox="0 0 51 43" fill="none" xmlns="http://www.w3.org/2000/svg">
<path d="M45.7857 17.3659V21.7593C45.7824 24.1983 44.6174 26.5365 42.5464 28.2611C40.4754 29.9857 37.6675 30.9558 34.7386 30.9586H7.77466L12.1822 27.2882L9.95053 25.4297L5.54286 29.1001L5.10739 29.4626L1.79663 32.2197L9.09774 39.0597L11.4569 37.3135L7.47905 33.5869H34.7386C42.5702 33.5869 48.942 28.2809 48.942 21.7593V14.7375L45.7857 17.3659Z" fill="white"/>
<path d="M4.75371 21.1021C4.75703 18.6632 5.92197 16.3249 7.99298 14.6003C10.064 12.8757 12.8719 11.9056 15.8008 11.9029H42.7647L38.3572 15.5733L40.5888 17.4317L44.9965 13.7614L45.4026 13.4233L48.7428 10.6417L41.4416 3.80176L39.0825 5.54798L43.0603 9.27451H15.8008C7.96919 9.27451 1.59741 14.5805 1.59741 21.1021V28.1484L4.75371 25.52V21.1021Z" fill="white"/>
</svg>
