<svg width="664" height="1148" viewBox="0 0 664 1148" fill="none" xmlns="http://www.w3.org/2000/svg">
<mask id="mask0" mask-type="alpha" maskUnits="userSpaceOnUse" x="0" y="0" width="664" height="1148">
<path d="M0 0H664V1148H0V0Z" fill="#444440"/>
</mask>
<g mask="url(#mask0)">
<circle cx="481" cy="96.5" r="73.5" fill="#3F006F"/>
<circle cx="547" cy="140.5" r="43.5" fill="#8341B6"/>
<path d="M216 224.5C216 304.305 151.305 369 71.5 369C-8.30515 369 -73 304.305 -73 224.5C-73 144.695 -8.30515 80 71.5 80C151.305 80 216 144.695 216 224.5Z" fill="#BF96DF"/>
<circle cx="733" cy="838.5" r="157.5" fill="#954BCE"/>
<circle cx="158.5" cy="1128" r="224" fill="#6B21A4"/>
<g filter="url(#filter0_d)">
<path d="M189.816 406H206.561L212.426 372.68L217.866 406H231.806L249.061 372.85L243.196 406H259.771L270.396 346.075H250.336L228.831 384.92L220.586 346.075H200.441L189.816 406ZM273.504 380.84C270.444 397.925 280.049 406.595 294.499 406.595C309.204 406.595 322.039 398.35 325.099 380.84L331.219 346.075H314.559L308.439 380.84C307.334 386.96 303.679 390.87 297.389 390.87C291.099 390.87 289.059 386.96 290.164 380.84L296.199 346.075H279.624L273.504 380.84ZM378.387 387.81C378.387 370.385 353.567 370.725 353.567 362.565C353.567 359.845 355.692 358.23 358.667 358.23C362.067 358.23 363.937 360.355 363.342 363.755H381.277C382.552 352.11 373.117 345.14 359.602 345.14C345.577 345.14 335.377 352.28 335.462 364.945C335.547 382.37 360.367 380.67 360.367 389.255C360.367 392.06 358.072 393.505 354.927 393.505C350.847 393.505 348.977 391.21 349.317 387.385H331.722C330.277 400.305 340.307 406.595 354.587 406.595C369.462 406.595 378.387 398.52 378.387 387.81ZM383.473 406H400.218L410.758 346.075H394.098L383.473 406ZM412.935 375.91C409.79 393.845 419.31 406.425 437.33 406.425C452.375 406.425 464.7 397.755 470.14 384.155H452.12C449.23 388.575 444.81 391.04 439.88 391.04C432.23 391.04 428.235 385.09 429.85 375.91C431.465 366.73 437.5 360.865 445.15 360.865C450.08 360.865 453.65 363.33 455.01 367.75H472.945C472.435 354.15 463.17 345.48 448.125 345.48C430.105 345.48 416.08 358.06 412.935 375.91ZM291.998 511H308.743L319.283 451.075H302.623L291.998 511ZM366.766 492.81C366.766 475.385 341.946 475.725 341.946 467.565C341.946 464.845 344.071 463.23 347.046 463.23C350.446 463.23 352.316 465.355 351.721 468.755H369.656C370.931 457.11 361.496 450.14 347.981 450.14C333.956 450.14 323.756 457.28 323.841 469.945C323.926 487.37 348.746 485.67 348.746 494.255C348.746 497.06 346.451 498.505 343.306 498.505C339.226 498.505 337.356 496.21 337.696 492.385H320.101C318.656 505.305 328.686 511.595 342.966 511.595C357.841 511.595 366.766 503.52 366.766 492.81ZM109.698 551.075H71.3635L60.7385 611H99.1585L101.453 597.74H79.7785L81.7335 586.86H100.858L103.153 574.195H84.0285L85.7285 564.25H107.403L109.698 551.075ZM123.711 611H144.961L176.241 551.075H158.476L137.311 594.255L131.361 551.075H113.596L123.711 611ZM219.767 551.075H181.432L170.807 611H209.227L211.522 597.74H189.847L191.802 586.86H210.927L213.222 574.195H194.097L195.797 564.25H217.472L219.767 551.075ZM256.134 571.22C255.369 575.385 252.819 577.51 248.314 577.51H240.069L242.194 564.93H250.439C255.029 564.93 256.814 567.48 256.134 571.22ZM227.999 551.075L217.374 611H234.119L238.029 588.9H239.814L247.804 611H266.334L256.984 587.625C266.419 584.905 271.859 578.105 273.219 570.285C275.174 559.575 269.139 551.075 254.264 551.075H227.999ZM293.631 591.96L290.316 611H306.976L310.376 591.96L338.681 551.075H319.896L305.276 574.28L298.816 551.075H279.776L293.631 591.96ZM338.1 564.335H353.91L345.665 611H362.41L370.655 564.335H386.55L388.93 551.075H340.48L338.1 564.335ZM421.444 611H438.189L448.729 551.075H432.069L428.074 573.685H407.759L411.754 551.075H395.094L384.469 611H401.214L405.464 586.945H425.694L421.444 611ZM447.638 611H464.383L474.923 551.075H458.263L447.638 611ZM523.255 551.075L517.305 584.99L501.07 551.075H484.41L473.785 611H490.53L496.48 577.51L512.63 611H529.375L539.915 551.075H523.255ZM542.095 580.91C538.95 598.845 548.725 611.425 567.17 611.425C582.81 611.425 593.775 601.735 598.875 592.98L601.765 576.83H570.655L568.53 588.815H585.275C581.875 594 577.115 596.72 571.335 596.72C561.475 596.72 557.225 591.195 559.01 580.91C560.625 571.73 566.83 565.865 575.16 565.865C579.835 565.865 582.895 567.65 584.17 570.795H602.105C601.935 558.3 592.925 550.48 577.795 550.48C559.435 550.48 545.24 563.06 542.095 580.91Z" fill="white"/>
</g>
<path d="M44.7764 669.76L40.0724 677.376H44.0404L47.3364 669.76H44.7764ZM50.5364 669.76L45.8324 677.376H49.8004L53.0964 669.76H50.5364ZM53.3454 692H56.9934L59.6814 676.768L63.8094 692H66.3374L75.8094 676.768L73.1214 692H76.7694L80.7054 669.76H76.8014L65.9534 687.2L61.2174 669.76H57.2814L53.3454 692ZM100.092 681.536C100.092 677.088 96.9561 674.08 92.4441 674.08C86.3001 674.08 81.7561 678.88 81.7561 684.864C81.7561 689.28 84.7641 692.288 89.2761 692.288C95.3561 692.288 100.092 687.584 100.092 681.536ZM85.5321 684.704C85.5321 680.736 88.0921 677.152 91.9321 677.152C94.3001 677.152 96.3161 678.688 96.3161 681.76C96.3161 685.664 93.5001 689.216 89.7241 689.216C87.3561 689.216 85.5321 687.68 85.5321 684.704ZM105.618 692L107.282 682.592C107.922 678.976 109.778 677.856 112.466 677.856H113.394L114.066 674.08C111.538 674.08 109.554 675.424 108.178 677.472L108.722 674.368H105.074L101.97 692H105.618ZM124.3 677.152C127.02 677.152 128.876 678.88 128.428 681.792H118.636C119.436 678.88 121.772 677.152 124.3 677.152ZM130.86 686.752H126.924C126.028 688.128 124.588 689.216 122.348 689.216C119.628 689.216 117.804 687.392 118.156 684.416H131.628C131.82 683.808 131.98 683.232 132.076 682.688C132.972 677.568 130.028 674.08 125.004 674.08C119.788 674.08 115.596 677.632 114.604 683.168C113.612 688.704 116.748 692.288 121.804 692.288C126.124 692.288 129.324 689.824 130.86 686.752ZM145.035 687.104C144.427 690.688 146.123 692 149.259 692H152.139L152.683 688.96H150.443C148.907 688.96 148.491 688.416 148.715 687.104L150.443 677.344H154.731L155.243 674.368H150.987L151.755 669.984H148.075L147.307 674.368H145.195L144.683 677.344H146.763L145.035 687.104ZM155.502 692H159.15L160.91 682.08V682.144C161.454 678.912 163.534 677.248 166.222 677.248C168.878 677.248 170.318 678.912 169.774 682.144L168.014 692H171.63L173.486 681.6C174.35 676.672 171.726 674.08 167.79 674.08C165.518 674.08 163.374 674.944 161.902 676.416L163.342 668.32H159.694L155.502 692ZM176.635 683.104C175.675 688.544 178.715 692.288 183.291 692.288C186.235 692.288 188.603 690.88 189.979 689.376L189.499 692H193.179L196.283 674.368H192.603L192.155 676.928C191.323 675.488 189.531 674.08 186.555 674.08C181.915 674.08 177.595 677.664 176.635 683.104ZM191.067 683.168C190.395 686.976 187.419 689.12 184.667 689.12C181.947 689.12 179.707 686.912 180.379 683.104C181.051 679.296 184.059 677.248 186.779 677.248C189.531 677.248 191.739 679.392 191.067 683.168ZM210.482 692H214.098L215.954 681.6C216.818 676.672 214.162 674.08 210.034 674.08C207.922 674.08 205.81 674.944 204.37 676.416L204.722 674.368H201.074L197.97 692H201.618L203.378 682.048V682.144C203.922 678.912 206.002 677.248 208.69 677.248C211.346 677.248 212.786 678.912 212.242 682.144L210.482 692ZM230.361 692H234.041L238.073 669.28H231.417L230.809 672.608H233.785L230.361 692ZM241.133 680.288C239.981 686.816 240.877 691.936 247.405 691.936C253.933 691.936 256.621 686.816 257.773 680.288C258.925 673.792 258.029 668.672 251.501 668.672C244.973 668.672 242.285 673.792 241.133 680.288ZM254.189 680.288C253.421 684.608 252.237 688.608 247.981 688.608C243.725 688.608 243.949 684.608 244.717 680.288C245.453 676 246.669 672 250.925 672C255.181 672 254.925 676 254.189 680.288ZM261.633 680.288C260.481 686.816 261.377 691.936 267.905 691.936C274.433 691.936 277.121 686.816 278.273 680.288C279.425 673.792 278.529 668.672 272.001 668.672C265.473 668.672 262.785 673.792 261.633 680.288ZM274.689 680.288C273.921 684.608 272.737 688.608 268.481 688.608C264.225 688.608 264.449 684.608 265.217 680.288C265.953 676 267.169 672 271.425 672C275.681 672 275.425 676 274.689 680.288ZM303.951 687.136C303.951 681.664 295.279 682.432 295.279 679.104C295.279 677.792 296.527 676.96 298.351 676.96C300.463 676.96 301.647 678.08 301.487 679.744H304.943C305.359 676.352 302.575 674.08 298.575 674.08C294.447 674.08 291.599 676.16 291.599 679.264C291.599 684.96 300.367 684.128 300.367 687.264C300.367 688.768 298.767 689.408 296.847 689.408C294.703 689.408 293.519 688.192 293.679 686.592H290.127C289.647 689.952 292.655 692.288 296.623 692.288C300.815 692.288 303.951 690.336 303.951 687.136ZM325.748 681.536C325.748 677.088 322.612 674.08 318.1 674.08C311.956 674.08 307.412 678.88 307.412 684.864C307.412 689.28 310.42 692.288 314.932 692.288C321.012 692.288 325.748 687.584 325.748 681.536ZM311.188 684.704C311.188 680.736 313.748 677.152 317.588 677.152C319.956 677.152 321.972 678.688 321.972 681.76C321.972 685.664 319.156 689.216 315.38 689.216C313.012 689.216 311.188 687.68 311.188 684.704ZM340.139 692H343.755L345.611 681.6C346.475 676.672 343.819 674.08 339.691 674.08C337.579 674.08 335.467 674.944 334.027 676.416L334.379 674.368H330.731L327.627 692H331.275L333.035 682.048V682.144C333.579 678.912 335.659 677.248 338.347 677.248C341.003 677.248 342.443 678.912 341.899 682.144L340.139 692ZM348.76 683.104C347.8 688.544 350.84 692.288 355.48 692.288C358.36 692.288 360.728 690.848 362.104 689.344L361.592 692.288C360.952 695.808 358.552 697.536 355.736 697.536C353.208 697.536 351.48 696.288 351.256 694.464H347.64C347.384 698.368 350.456 700.704 355.16 700.704C360.664 700.704 364.408 697.088 365.272 692.288L368.408 674.368H364.728L364.28 676.928C363.48 675.424 361.56 674.08 358.68 674.08C354.04 674.08 349.72 677.664 348.76 683.104ZM363.192 683.168C362.52 686.976 359.544 689.12 356.792 689.12C354.072 689.12 351.832 686.912 352.504 683.104C353.176 679.296 356.184 677.248 358.904 677.248C361.656 677.248 363.864 679.392 363.192 683.168ZM383.919 687.136C383.919 681.664 375.247 682.432 375.247 679.104C375.247 677.792 376.495 676.96 378.319 676.96C380.431 676.96 381.615 678.08 381.455 679.744H384.911C385.327 676.352 382.543 674.08 378.543 674.08C374.415 674.08 371.567 676.16 371.567 679.264C371.567 684.96 380.335 684.128 380.335 687.264C380.335 688.768 378.735 689.408 376.815 689.408C374.671 689.408 373.487 688.192 373.647 686.592H370.095C369.615 689.952 372.623 692.288 376.591 692.288C380.783 692.288 383.919 690.336 383.919 687.136ZM401.711 691.712L396.623 700.288H400.399L415.759 674.368H411.983L404.463 687.808L401.871 674.368H397.807L401.711 691.712ZM433.936 681.536C433.936 677.088 430.8 674.08 426.288 674.08C420.144 674.08 415.6 678.88 415.6 684.864C415.6 689.28 418.608 692.288 423.12 692.288C429.2 692.288 433.936 687.584 433.936 681.536ZM419.376 684.704C419.376 680.736 421.936 677.152 425.776 677.152C428.144 677.152 430.16 678.688 430.16 681.76C430.16 685.664 427.344 689.216 423.568 689.216C421.2 689.216 419.376 687.68 419.376 684.704ZM454.886 674.368H451.238L449.478 684.416C448.87 687.488 446.822 689.088 444.198 689.088C441.542 689.088 440.102 687.424 440.646 684.192L442.374 674.368H438.758L436.934 684.736C436.07 689.664 438.758 692.256 442.886 692.256C444.966 692.256 447.078 691.392 448.486 689.92L448.134 692H451.782L454.886 674.368ZM466.541 683.168C465.549 688.704 468.525 692.288 473.581 692.288C477.901 692.288 481.133 689.888 482.733 686.432H478.797C477.805 688.256 476.301 689.216 474.125 689.216C471.181 689.216 469.613 687.04 470.285 683.168C470.957 679.328 473.293 677.152 476.237 677.152C478.413 677.152 479.629 678.24 479.949 679.936H483.885C483.533 676.224 481.101 674.08 476.781 674.08C471.725 674.08 467.501 677.664 466.541 683.168ZM485.729 683.104C484.769 688.544 487.809 692.288 492.385 692.288C495.329 692.288 497.697 690.88 499.073 689.376L498.593 692H502.273L505.377 674.368H501.697L501.249 676.928C500.417 675.488 498.625 674.08 495.649 674.08C491.009 674.08 486.689 677.664 485.729 683.104ZM500.161 683.168C499.489 686.976 496.513 689.12 493.761 689.12C491.041 689.12 488.801 686.912 489.473 683.104C490.145 679.296 493.153 677.248 495.873 677.248C498.625 677.248 500.833 679.392 500.161 683.168ZM519.576 692H523.192L525.048 681.6C525.912 676.672 523.256 674.08 519.128 674.08C517.016 674.08 514.904 674.944 513.464 676.416L513.816 674.368H510.168L507.064 692H510.712L512.472 682.048V682.144C513.016 678.912 515.096 677.248 517.784 677.248C520.44 677.248 521.88 678.912 521.336 682.144L519.576 692ZM537.439 692H541.087L542.847 682.08V682.144C543.391 678.912 545.471 677.248 548.159 677.248C550.815 677.248 552.255 678.912 551.711 682.144L549.951 692H553.567L555.423 681.6C556.287 676.672 553.663 674.08 549.727 674.08C547.455 674.08 545.311 674.944 543.839 676.416L545.279 668.32H541.631L537.439 692ZM568.268 677.152C570.988 677.152 572.844 678.88 572.396 681.792H562.604C563.404 678.88 565.74 677.152 568.268 677.152ZM574.828 686.752H570.892C569.996 688.128 568.556 689.216 566.316 689.216C563.596 689.216 561.772 687.392 562.124 684.416H575.596C575.788 683.808 575.948 683.232 576.044 682.688C576.94 677.568 573.996 674.08 568.972 674.08C563.756 674.08 559.564 677.632 558.572 683.168C557.58 688.704 560.716 692.288 565.772 692.288C570.092 692.288 573.292 689.824 574.828 686.752ZM578.322 683.104C577.362 688.544 580.402 692.288 584.978 692.288C587.922 692.288 590.29 690.88 591.666 689.376L591.186 692H594.866L597.97 674.368H594.29L593.842 676.928C593.01 675.488 591.218 674.08 588.242 674.08C583.602 674.08 579.282 677.664 578.322 683.104ZM592.754 683.168C592.082 686.976 589.106 689.12 586.354 689.12C583.634 689.12 581.394 686.912 582.066 683.104C582.738 679.296 585.746 677.248 588.466 677.248C591.218 677.248 593.426 679.392 592.754 683.168ZM603.306 692L604.97 682.592C605.61 678.976 607.466 677.856 610.154 677.856H611.082L611.754 674.08C609.226 674.08 607.242 675.424 605.866 677.472L606.41 674.368H602.762L599.658 692H603.306ZM620.547 677.376L625.251 669.76H621.283L617.987 677.376H620.547ZM614.787 677.376L619.491 669.76H615.523L612.227 677.376H614.787Z" fill="#3F006F"/>
</g>
<defs>
<filter id="filter0_d" x="51.7385" y="345.14" width="550.367" height="276.285" filterUnits="userSpaceOnUse" color-interpolation-filters="sRGB">
<feFlood flood-opacity="0" result="BackgroundImageFix"/>
<feColorMatrix in="SourceAlpha" type="matrix" values="0 0 0 0 0 0 0 0 0 0 0 0 0 0 0 0 0 0 127 0"/>
<feOffset dx="-9" dy="10"/>
<feColorMatrix type="matrix" values="0 0 0 0 0 0 0 0 0 0 0 0 0 0 0 0 0 0 0.25 0"/>
<feBlend mode="normal" in2="BackgroundImageFix" result="effect1_dropShadow"/>
<feBlend mode="normal" in="SourceGraphic" in2="effect1_dropShadow" result="shape"/>
</filter>
</defs>
</svg>
