<svg width="36" height="48" viewBox="0 0 36 48" fill="none" xmlns="http://www.w3.org/2000/svg">
<path d="M8.66667 0H4.33333C3.18406 0 2.08186 0.505713 1.2692 1.40589C0.456547 2.30606 0 3.52696 0 4.8V43.2C0 44.473 0.456547 45.6939 1.2692 46.5941C2.08186 47.4943 3.18406 48 4.33333 48H8.66667C9.81594 48 10.9181 47.4943 11.7308 46.5941C12.5435 45.6939 13 44.473 13 43.2V4.8C13 3.52696 12.5435 2.30606 11.7308 1.40589C10.9181 0.505713 9.81594 0 8.66667 0V0Z" fill="white"/>
<path d="M31.6667 0H27.3333C26.1841 0 25.0819 0.505713 24.2692 1.40589C23.4565 2.30606 23 3.52696 23 4.8V43.2C23 44.473 23.4565 45.6939 24.2692 46.5941C25.0819 47.4943 26.1841 48 27.3333 48H31.6667C32.8159 48 33.9181 47.4943 34.7308 46.5941C35.5435 45.6939 36 44.473 36 43.2V4.8C36 3.52696 35.5435 2.30606 34.7308 1.40589C33.9181 0.505713 32.8159 0 31.6667 0V0Z" fill="white"/>
</svg>
