<svg width="227" height="68" viewBox="0 0 227 68" fill="none" xmlns="http://www.w3.org/2000/svg">
<rect width="227" height="68" rx="34" fill="#542E71"/>
<path d="M57.728 47.252C56.072 47.252 54.584 46.964 53.264 46.388C51.968 45.788 50.948 44.972 50.204 43.94C49.46 42.884 49.076 41.672 49.052 40.304H52.544C52.664 41.48 53.144 42.476 53.984 43.292C54.848 44.084 56.096 44.48 57.728 44.48C59.288 44.48 60.512 44.096 61.4 43.328C62.312 42.536 62.768 41.528 62.768 40.304C62.768 39.344 62.504 38.564 61.976 37.964C61.448 37.364 60.788 36.908 59.996 36.596C59.204 36.284 58.136 35.948 56.792 35.588C55.136 35.156 53.804 34.724 52.796 34.292C51.812 33.86 50.96 33.188 50.24 32.276C49.544 31.34 49.196 30.092 49.196 28.532C49.196 27.164 49.544 25.952 50.24 24.896C50.936 23.84 51.908 23.024 53.156 22.448C54.428 21.872 55.88 21.584 57.512 21.584C59.864 21.584 61.784 22.172 63.272 23.348C64.784 24.524 65.636 26.084 65.828 28.028H62.228C62.108 27.068 61.604 26.228 60.716 25.508C59.828 24.764 58.652 24.392 57.188 24.392C55.82 24.392 54.704 24.752 53.84 25.472C52.976 26.168 52.544 27.152 52.544 28.424C52.544 29.336 52.796 30.08 53.3 30.656C53.828 31.232 54.464 31.676 55.208 31.988C55.976 32.276 57.044 32.612 58.412 32.996C60.068 33.452 61.4 33.908 62.408 34.364C63.416 34.796 64.28 35.48 65 36.416C65.72 37.328 66.08 38.576 66.08 40.16C66.08 41.384 65.756 42.536 65.108 43.616C64.46 44.696 63.5 45.572 62.228 46.244C60.956 46.916 59.456 47.252 57.728 47.252ZM74.1769 21.908V47H70.9009V21.908H74.1769ZM98.7683 29.18C98.0723 27.716 97.0643 26.588 95.7443 25.796C94.4243 24.98 92.8883 24.572 91.1363 24.572C89.3843 24.572 87.8003 24.98 86.3843 25.796C84.9923 26.588 83.8883 27.74 83.0723 29.252C82.2803 30.74 81.8843 32.468 81.8843 34.436C81.8843 36.404 82.2803 38.132 83.0723 39.62C83.8883 41.108 84.9923 42.26 86.3843 43.076C87.8003 43.868 89.3843 44.264 91.1363 44.264C93.5843 44.264 95.6003 43.532 97.1843 42.068C98.7683 40.604 99.6923 38.624 99.9563 36.128H89.9483V33.464H103.448V35.984C103.256 38.048 102.608 39.944 101.504 41.672C100.4 43.376 98.9483 44.732 97.1483 45.74C95.3483 46.724 93.3443 47.216 91.1363 47.216C88.8083 47.216 86.6843 46.676 84.7643 45.596C82.8443 44.492 81.3203 42.968 80.1923 41.024C79.0883 39.08 78.5363 36.884 78.5363 34.436C78.5363 31.988 79.0883 29.792 80.1923 27.848C81.3203 25.88 82.8443 24.356 84.7643 23.276C86.6843 22.172 88.8083 21.62 91.1363 21.62C93.8003 21.62 96.1523 22.28 98.1923 23.6C100.256 24.92 101.756 26.78 102.692 29.18H98.7683ZM127.508 47H124.232L111.056 27.02V47H107.78V21.872H111.056L124.232 41.816V21.872H127.508V47ZM145.894 21.908V37.784C145.894 40.016 146.434 41.672 147.514 42.752C148.618 43.832 150.142 44.372 152.086 44.372C154.006 44.372 155.506 43.832 156.586 42.752C157.69 41.672 158.242 40.016 158.242 37.784V21.908H161.518V37.748C161.518 39.836 161.098 41.6 160.258 43.04C159.418 44.456 158.278 45.512 156.838 46.208C155.422 46.904 153.826 47.252 152.05 47.252C150.274 47.252 148.666 46.904 147.226 46.208C145.81 45.512 144.682 44.456 143.842 43.04C143.026 41.6 142.618 39.836 142.618 37.748V21.908H145.894ZM183.759 29.252C183.759 31.34 183.039 33.08 181.599 34.472C180.183 35.84 178.011 36.524 175.083 36.524H170.259V47H166.983V21.908H175.083C177.915 21.908 180.063 22.592 181.527 23.96C183.015 25.328 183.759 27.092 183.759 29.252ZM175.083 33.824C176.907 33.824 178.251 33.428 179.115 32.636C179.979 31.844 180.411 30.716 180.411 29.252C180.411 26.156 178.635 24.608 175.083 24.608H170.259V33.824H175.083Z" fill="white"/>
</svg>
