<svg width="70" height="70" viewBox="0 0 70 70" fill="none" xmlns="http://www.w3.org/2000/svg">
<path d="M58.0417 36.925C57.5741 36.3927 57.3162 35.7085 57.3162 35C57.3162 34.2915 57.5741 33.6072 58.0417 33.075L61.775 28.875C62.1864 28.4161 62.4418 27.8387 62.5047 27.2256C62.5676 26.6126 62.4347 25.9953 62.125 25.4625L56.2916 15.3708C55.9851 14.8386 55.5184 14.4167 54.958 14.1653C54.3976 13.9139 53.7722 13.8459 53.1708 13.9708L47.6875 15.0791C46.9898 15.2233 46.2634 15.1071 45.6455 14.7525C45.0276 14.3978 44.5608 13.8293 44.3333 13.1541L42.5541 7.81665C42.3585 7.23733 41.9857 6.73417 41.4885 6.37827C40.9913 6.02237 40.3948 5.83173 39.7833 5.83331H28.1166C27.4806 5.80011 26.8512 5.97601 26.3245 6.33415C25.7979 6.69228 25.4029 7.21295 25.2 7.81665L23.5666 13.1541C23.3392 13.8293 22.8724 14.3978 22.2545 14.7525C21.6366 15.1071 20.9102 15.2233 20.2125 15.0791L14.5833 13.9708C14.0133 13.8903 13.4321 13.9802 12.9131 14.2293C12.3941 14.4785 11.9604 14.8756 11.6666 15.3708L5.83332 25.4625C5.51587 25.9894 5.37313 26.6031 5.42551 27.216C5.4779 27.829 5.72272 28.4096 6.12498 28.875L9.82915 33.075C10.2967 33.6072 10.5546 34.2915 10.5546 35C10.5546 35.7085 10.2967 36.3927 9.82915 36.925L6.12498 41.125C5.72272 41.5904 5.4779 42.171 5.42551 42.7839C5.37313 43.3968 5.51587 44.0106 5.83332 44.5375L11.6666 54.6292C11.9732 55.1614 12.4399 55.5833 13.0003 55.8347C13.5607 56.086 14.1861 56.1541 14.7875 56.0291L20.2708 54.9208C20.9685 54.7766 21.6949 54.8928 22.3128 55.2475C22.9307 55.6021 23.3975 56.1707 23.625 56.8458L25.4041 62.1833C25.6071 62.787 26.0021 63.3077 26.5287 63.6658C27.0554 64.0239 27.6848 64.1998 28.3208 64.1667H39.9875C40.5989 64.1682 41.1954 63.9776 41.6926 63.6217C42.1899 63.2658 42.5626 62.7626 42.7583 62.1833L44.5375 56.8458C44.765 56.1707 45.2317 55.6021 45.8497 55.2475C46.4676 54.8928 47.1939 54.7766 47.8917 54.9208L53.375 56.0291C53.9763 56.1541 54.6018 56.086 55.1622 55.8347C55.7226 55.5833 56.1893 55.1614 56.4958 54.6292L62.3292 44.5375C62.6388 44.0046 62.7718 43.3874 62.7089 42.7743C62.646 42.1613 62.3905 41.5839 61.9792 41.125L58.0417 36.925ZM53.6958 40.8333L56.0291 43.4583L52.2958 49.9333L48.8541 49.2333C46.7535 48.8039 44.5683 49.1607 42.7134 50.2361C40.8585 51.3114 39.4629 53.0304 38.7916 55.0666L37.6833 58.3333H30.2166L29.1666 55.0083C28.4954 52.972 27.0998 51.2531 25.2449 50.1777C23.39 49.1024 21.2048 48.7456 19.1041 49.175L15.6625 49.875L11.8708 43.4291L14.2041 40.8041C15.639 39.1999 16.4323 37.1231 16.4323 34.9708C16.4323 32.8185 15.639 30.7417 14.2041 29.1375L11.8708 26.5125L15.6041 20.0958L19.0458 20.7958C21.1465 21.2252 23.3316 20.8684 25.1866 19.7931C27.0415 18.7177 28.4371 16.9988 29.1083 14.9625L30.2166 11.6666H37.6833L38.7916 14.9916C39.4629 17.0279 40.8585 18.7469 42.7134 19.8222C44.5683 20.8975 46.7535 21.2544 48.8541 20.825L52.2958 20.125L56.0291 26.6L53.6958 29.225C52.2771 30.8255 51.4937 32.8903 51.4937 35.0292C51.4937 37.168 52.2771 39.2328 53.6958 40.8333ZM33.95 23.3333C31.6425 23.3333 29.3869 24.0176 27.4683 25.2995C25.5498 26.5815 24.0544 28.4035 23.1714 30.5353C22.2884 32.6671 22.0573 35.0129 22.5075 37.276C22.9576 39.5391 24.0688 41.618 25.7004 43.2496C27.332 44.8812 29.4108 45.9923 31.6739 46.4425C33.937 46.8926 36.2828 46.6616 38.4146 45.7786C40.5464 44.8956 42.3685 43.4002 43.6505 41.4816C44.9324 39.5631 45.6166 37.3074 45.6166 35C45.6166 31.9058 44.3875 28.9383 42.1996 26.7504C40.0116 24.5625 37.0442 23.3333 33.95 23.3333ZM33.95 40.8333C32.7963 40.8333 31.6684 40.4912 30.7092 39.8502C29.7499 39.2092 29.0022 38.2982 28.5607 37.2323C28.1192 36.1664 28.0037 34.9935 28.2287 33.862C28.4538 32.7304 29.0094 31.691 29.8252 30.8752C30.641 30.0594 31.6804 29.5038 32.812 29.2787C33.9435 29.0537 35.1164 29.1692 36.1823 29.6107C37.2482 30.0522 38.1592 30.7999 38.8002 31.7592C39.4412 32.7184 39.7833 33.8463 39.7833 35C39.7833 36.5471 39.1687 38.0308 38.0748 39.1248C36.9808 40.2187 35.4971 40.8333 33.95 40.8333Z" fill="black"/>
</svg>
